<?xml version="1.0" encoding="UTF-8" standalone="no"?>
<!-- Created with Inkscape (http://www.inkscape.org/) -->

<svg
   width="210mm"
   height="297mm"
   viewBox="0 0 210 297"
   version="1.1"
   id="svg5"
   inkscape:version="1.2 (dc2aedaf03, 2022-05-15)"
   sodipodi:docname="LadleFilling.svg"
   inkscape:export-filename="LadleFilling.png"
   inkscape:export-xdpi="96"
   inkscape:export-ydpi="96"
   xmlns:inkscape="http://www.inkscape.org/namespaces/inkscape"
   xmlns:sodipodi="http://sodipodi.sourceforge.net/DTD/sodipodi-0.dtd"
   xmlns="http://www.w3.org/2000/svg"
   xmlns:svg="http://www.w3.org/2000/svg"
   xmlns:rdf="http://www.w3.org/1999/02/22-rdf-syntax-ns#"
   xmlns:cc="http://creativecommons.org/ns#"
   xmlns:dc="http://purl.org/dc/elements/1.1/">
  <title
     id="title4547">Ladle_0</title>
  <sodipodi:namedview
     id="namedview7"
     pagecolor="#ffffff"
     bordercolor="#000000"
     borderopacity="0.25"
     inkscape:showpageshadow="2"
     inkscape:pageopacity="0.0"
     inkscape:pagecheckerboard="0"
     inkscape:deskcolor="#d1d1d1"
     inkscape:document-units="mm"
     showgrid="true"
     inkscape:zoom="1.1893044"
     inkscape:cx="445.63864"
     inkscape:cy="477.16968"
     inkscape:window-width="2560"
     inkscape:window-height="1494"
     inkscape:window-x="-11"
     inkscape:window-y="-11"
     inkscape:window-maximized="1"
     inkscape:current-layer="layer1">
    <inkscape:grid
       type="xygrid"
       id="grid90" />
  </sodipodi:namedview>
  <defs
     id="defs2" />
  <g
     inkscape:label="Layer 1"
     inkscape:groupmode="layer"
     id="layer1">
    <g
       id="g3079"
       transform="matrix(2.1520254,0,0,2.7644626,-64.983683,-104.87118)">
      <path
         style="fill:#040206;fill-opacity:0.274924;stroke:none;stroke-width:0.499999;stroke-opacity:0.987654"
         d="m 115.29212,60.854161 h -5.55624 l -8.7312,52.916669 H 79.375 v 5.29167 h 26.12757 l 9.78955,-58.208339"
         id="path1239-5"
         sodipodi:nodetypes="ccccccc" />
      <path
         style="fill:#040206;fill-opacity:0.274924;stroke:none;stroke-width:0.499999;stroke-opacity:0.987654"
         d="m 113.2886,72.758679 c 5.29166,0 4.45098,2.64757 4.45098,2.64757 0,0 0,1.852084 -1.85208,2.381251 -1.52877,0.436792 -3.53691,0.529167 -3.53691,0.529167"
         id="path1321"
         sodipodi:nodetypes="ccsc" />
      <path
         style="fill:#040206;fill-opacity:0.274924;stroke:none;stroke-width:0.499999;stroke-opacity:0.987654"
         d="m 109.64492,94.465977 c 5.29166,0 4.45098,2.64757 4.45098,2.64757 0,0 0,1.852084 -1.85208,2.381251 -1.52877,0.436792 -3.53691,0.529162 -3.53691,0.529162"
         id="path1321-7"
         sodipodi:nodetypes="ccsc" />
      <path
         style="fill:#040206;fill-opacity:0.274924;stroke:none;stroke-width:0.499999;stroke-opacity:0.987654"
         d="m 43.45788,60.85416 h 5.55624 l 8.7312,52.91667 H 79.375 v 5.29167 H 53.24743 L 43.45788,60.85416"
         id="path1239-5-8"
         sodipodi:nodetypes="ccccccc" />
      <path
         style="fill:#040206;fill-opacity:0.274924;stroke:none;stroke-width:0.499999;stroke-opacity:0.987654"
         d="m 45.4614,72.758676 c -5.29166,0 -4.45098,2.64757 -4.45098,2.64757 0,0 0,1.85209 1.85208,2.38125 1.52877,0.4368 3.53691,0.52917 3.53691,0.52917"
         id="path1321-3"
         sodipodi:nodetypes="ccsc" />
      <path
         style="fill:#040206;fill-opacity:0.274924;stroke:none;stroke-width:0.499999;stroke-opacity:0.987654"
         d="m 49.10508,94.465976 c -5.29166,0 -4.45098,2.64757 -4.45098,2.64757 0,0 0,1.85208 1.85208,2.38125 1.52877,0.43679 3.53691,0.529164 3.53691,0.529164"
         id="path1321-7-7"
         sodipodi:nodetypes="ccsc" />
    </g>
  </g>
  <metadata
     id="metadata4545">
    <rdf:RDF>
      <cc:Work
         rdf:about="">
        <dc:title>Ladle_0</dc:title>
      </cc:Work>
    </rdf:RDF>
  </metadata>
</svg>
